# xmcd CD database file
#
# Track frame offsets:
#	150
#	13872
#	27587
#	42112
#	56505
#	69845
#	83115
#	97870
#	111445
#	124717
#	137642
#	150462
#	163385
#	175545
#	188502
#	201690
#	215567
#	229157
#	243130
#	253475
#
# Disc length: 3573 seconds
#
# Revision: 0
# Processed by: cddbd v1.4PL0 Copyright (c) Steve Scherf et al.
# Submitted via: CDex 1.50
#
DISCID=150df314
DTITLE=Various Artist - Suomalainen jazz 1929 - 1959  Osa 1: Vuodet 1929 - 1945
DYEAR=1994
DGENRE=Jazz
TTITLE0=THAT'S A PLENTY  The Rhythm Maniacs, Sylvester Ahola tp, 1929
TTITLE1=ORIGINAL DIXIELAND ONE STEP  Bernard Etté-Band, Matti Rajula,1929
TTITLE2=ISOO-ANTTI  Yrjön Orkesteri, Markus Rautio voc, 1929
TTITLE3=NEITI, KAK'S KAHVIA  Melody Boys, Kurt Londén voc, 1931
TTITLE4=MUISTAN SUA, ELAINE  Ramblers, Leo Adamson voc, 1932
TTITLE5=ILTA HAWAIJISSA  Zamba-orkesteri and laulutrio, 1932
TTITLE6=HEI HULINAA, HELSINKI  Matti Jurva and Rytmi-Pojat, 1935
TTITLE7=MY BABY  Rytmin Radio-Pojat, Elsie Granitz voc, 1935
TTITLE8=UNELMISSAIN OOT MUN  Ramblers, Klaus Salmi voc, 1938
TTITLE9=UNELMISSAIN OOT MUN 2. otto, 1938
TTITLE10=IKKUNAN PESIJÄ  Dallapé, Eino Katajavuori voc, 1938
TTITLE11=ALEKSANTERIN JAZZYHTYE  Bruno Laakko and Lepakot, 1939
TTITLE12=MILLOIN LUOTTAA VOIN SINUUN?  Rion tanssiorkesteri, 1939
TTITLE13=SWEET SUE  Odeon-orkesteri, 1942
TTITLE14=I'M COMING, VIRGINIA  Harmony Sisters and Thore Ehrlings orkester, 1943
TTITLE15=KAIKKENI SAAT OMISTAA  Gaby Ross and Sävelpojat, 1944
TTITLE16=St. LOUIS BLUES  Rytmi-orkesteri, 1944
TTITLE17=100 SWING  Sointu-orkesteri, 1945
TTITLE18=WHY NAMELESS  Rytmi-yhtye, 1945
TTITLE19=CAN'T HELP LOVIN' DAT MAN  Maire Ojonen and Rytmin swing-trio, 1945
EXTD=YEAR: 1994
EXTT0=
EXTT1=
EXTT2=
EXTT3=
EXTT4=
EXTT5=
EXTT6=
EXTT7=
EXTT8=
EXTT9=
EXTT10=
EXTT11=
EXTT12=
EXTT13=
EXTT14=
EXTT15=
EXTT16=
EXTT17=
EXTT18=
EXTT19=
PLAYORDER=
